<svg width="158" height="229" viewBox="0 0 158 229" fill="none" xmlns="http://www.w3.org/2000/svg">
<path d="M106.765 113.383L79 51L51.2338 113.386C71.5377 103.539 86.9541 103.538 106.765 113.383Z" fill="#334DF1"/>
<path d="M113.064 127.537L113 127.5C81.0897 109.052 71.5533 113.475 45.0044 127.383L31.4584 157.818C35.0779 156.372 38.6594 154.658 42.314 152.908C52.6274 147.971 63.5233 142.756 77.5001 142.5C91.0996 142.251 101.089 146.845 111.332 151.556C116.211 153.8 121.147 156.07 126.558 157.855L113.064 127.537Z" fill="#334DF1"/>
<path d="M14.0137 197.014L25.4088 171.411C36.9965 168.854 44.3191 164.763 50.9885 161.038C58.7919 156.679 65.7008 152.819 77.5001 152.5C88.3079 152.208 94.8921 155.822 102.054 159.753C109.471 163.825 117.509 168.237 131.5 169L131.519 169.001L142.44 193.54C139.447 195.509 135.483 196.141 131 195.5C121.372 194.125 114.159 190.218 107.1 186.394C98.7616 181.877 90.6373 177.476 79.0001 177.5C64.6516 177.53 55.2567 182.504 44.776 188.053C39.0135 191.103 32.9229 194.328 25.5001 197C18.5212 199.512 15.5183 198.506 14.0137 197.014Z" fill="#334DF1"/>
<path d="M9.55957 207.021L0 228.5H158L146.936 203.641C143.198 205.446 138.327 206.268 135 206C118.613 204.678 109.771 199.864 101.974 195.619C95.0209 191.833 88.8993 188.5 79.0001 188.5C66.5314 188.5 58.8219 192.73 49.6968 197.737C43.4532 201.163 36.5469 204.953 27 208C21.0048 209.913 13.6058 208.455 9.55957 207.021Z" fill="#334DF1"/>
<path d="M89.9996 22.5C101 19.5 119.5 18 123 0C123 0 124 20.5 123 27.5C121.869 35.4196 117.616 40.2544 111.409 38C83 27.6826 79.9995 43 79.9995 43C79.4995 35 81.2199 24.8944 89.9996 22.5Z" fill="#334DF1"/>
</svg>
